<svg xmlns="http://www.w3.org/2000/svg" xmlns:xlink="http://www.w3.org/1999/xlink" viewBox="0,0,256,256" width="24px" height="24px"><g fill="#ffffff" fill-rule="nonzero" stroke="none" stroke-width="1" stroke-linecap="butt" stroke-linejoin="miter" stroke-miterlimit="10" stroke-dasharray="" stroke-dashoffset="0" font-family="none" font-weight="none" font-size="none" text-anchor="none" style="mix-blend-mode: normal"><g transform="scale(10.66667,10.66667)"><path d="M7.5,1c-0.128,0 -0.25602,0.04898 -0.35352,0.14648c-0.195,0.195 -0.195,0.51203 0,0.70703l1.31055,1.31055c-1.48792,1.09186 -2.45703,2.84869 -2.45703,4.83594h12c0,-1.98725 -0.96911,-3.74408 -2.45703,-4.83594l1.31055,-1.31055c0.195,-0.196 0.195,-0.51103 0,-0.70703c-0.195,-0.195 -0.51203,-0.195 -0.70703,0l-1.48242,1.48242c-0.80345,-0.39935 -1.70587,-0.62891 -2.66406,-0.62891c-0.95819,0 -1.86062,0.22956 -2.66406,0.62891l-1.48242,-1.48242c-0.0975,-0.0975 -0.22552,-0.14648 -0.35352,-0.14648zM9,5h1v1h-1zM14,5h1v1h-1zM4,9c-0.552,0 -1,0.448 -1,1v6c0,0.552 0.448,1 1,1c0.552,0 1,-0.448 1,-1v-6c0,-0.552 -0.448,-1 -1,-1zM6,9v8c0,0.552 0.448,1 1,1h1v3.5c0,0.828 0.672,1.5 1.5,1.5c0.828,0 1.5,-0.672 1.5,-1.5v-3.5h2v3.5c0,0.828 0.672,1.5 1.5,1.5c0.828,0 1.5,-0.672 1.5,-1.5v-3.5h1c0.552,0 1,-0.448 1,-1v-8zM20,9c-0.552,0 -1,0.448 -1,1v6c0,0.552 0.448,1 1,1c0.552,0 1,-0.448 1,-1v-6c0,-0.552 -0.448,-1 -1,-1z"></path></g></g></svg>